# xmcd
#
# Track frame offsets:
#	180
#	11401
#	18682
#	43780
#	52682
#	69118
#	86119
#	95764
#	113928
#	128374
#	141386
#	153693
#	175109
#	184554
#	194737
#	204561
#	215689
#	227811
#	245946
#	260417
#	271875
#	287678
#	300971
#
# Disc length: 4205 seconds
#
# Revision: 1
# Processed by: cddbd v1.5.2PL0 Copyright (c) Steve Scherf et al.
# Submitted via: audiograbber 1.83.01
#
DISCID=4e106b17
DTITLE=Christian Besau - Trust In Me
DYEAR=1900
DGENRE=
TTITLE0=Some broken hearts
TTITLE1=Follow that dream
TTITLE2=Piano man
TTITLE3=Home is where the heart is
TTITLE4=You gave me a mountain
TTITLE5=Wunder geschehen
TTITLE6=Please don`t stop loving me
TTITLE7=Can you feel the love tonight
TTITLE8=Take me home
TTITLE9=Spanish eyes
TTITLE10=He touched me
TTITLE11=That`s summer
TTITLE12=Long tall Sally
TTITLE13=Trust in me
TTITLE14=Any way you want me
TTITLE15=I forgot to remember
TTITLE16=Ring of fire
TTITLE17=Play me
TTITLE18=Banks of the Ohio
TTITLE19=The wonder of you
TTITLE20=My way
TTITLE21=Can`t help falling in Love
TTITLE22=Gute Nacht Freunde
EXTD=
EXTT0=
EXTT1=
EXTT2=
EXTT3=
EXTT4=
EXTT5=
EXTT6=
EXTT7=
EXTT8=
EXTT9=
EXTT10=
EXTT11=
EXTT12=
EXTT13=
EXTT14=
EXTT15=
EXTT16=
EXTT17=
EXTT18=
EXTT19=
EXTT20=
EXTT21=
EXTT22=
PLAYORDER=
